<?xml version="1.0" encoding="UTF-8"?>
<svg width="480px" height="284px" viewBox="0 0 480 284" version="1.1" xmlns="http://www.w3.org/2000/svg" xmlns:xlink="http://www.w3.org/1999/xlink">
    <title>BC25C22A-BEF1-4F73-BEF0-5BE52E896562@3x</title>
    <defs>
        <polygon id="path-1" points="0 0 480 0 480 283.673016 0 283.673016"/>
        <path d="M57.1723915,1.58757401 C57.1835007,1.60273226 57.0865475,1.63304876 56.880522,1.67448131 L56.880522,1.67448131 L53.8497255,2.58296574 L46.361103,6.9111513 L44.2372226,5.11338289 L44.0352368,4.43328275 C41.1003835,4.72128949 37.2959815,5.18210028 33.0754888,5.85916877 L33.0754888,5.85916877 C18.5102947,9.48906429 2.36355205,15.5816701 0.298247524,24.7291685 L0.298247524,24.7291685 C-1.08737488,30.8591647 2.51605131,40.0753805 7.77172111,49.4553053 L7.77172111,49.4553053 C7.91513101,49.4270099 8.06763027,49.3946723 8.2120501,49.3653664 L8.2120501,49.3653664 C8.28880469,39.9975681 8.16054372,35.0276833 8.16054372,35.0276833 L8.16054372,35.0276833 C8.16054372,35.0276833 39.5188349,37.0174562 56.6189504,32.3931795 L56.6189504,32.3931795 C73.7200759,27.7678923 64.1732183,6.34423276 64.1732183,6.34423276 L64.1732183,6.34423276 L62.4664386,0 L57.1723915,1.58757401 Z" id="path-3"/>
        <path d="M0.284799939,0.165730196 C0.429219767,0.422409891 0.571619737,0.678079035 0.718059422,0.934758729 L0.718059422,0.934758729 C0.721089208,0.644730886 0.723109066,0.358745242 0.725128924,0.0757912483 L0.725128924,0.0757912483 C0.580709096,0.105097198 0.428209838,0.137434797 0.284799939,0.165730196" id="path-5"/>
        <path d="M0.284799939,0.165730196 C0.429219767,0.422409891 0.571619737,0.678079035 0.718059422,0.934758729 L0.718059422,0.934758729 C0.721089208,0.644730886 0.723109066,0.358745242 0.725128924,0.0757912483 L0.725128924,0.0757912483 C0.580709096,0.105097198 0.428209838,0.137434797 0.284799939,0.165730196" id="path-7"/>
        <path d="M0.358601503,0.548728638 C0.564626992,0.507296089 0.661580162,0.476979589 0.650470945,0.46182134 L0.650470945,0.46182134 L0.358601503,0.548728638 Z" id="path-9"/>
        <path d="M0.358601503,0.548728638 C0.564626992,0.507296089 0.661580162,0.476979589 0.650470945,0.46182134 L0.650470945,0.46182134 L0.358601503,0.548728638 Z" id="path-11"/>
        <path d="M1.19474585,0.333481493 L0,0.692226735 C2.33293567,0.45676859 2.78942352,0.318323243 1.87745776,0.318323243 L1.87745776,0.318323243 C1.69971028,0.318323243 1.47146635,0.323375993 1.19474585,0.333481493" id="path-13"/>
        <path d="M1.19474585,0.333481493 L0,0.692226735 C2.33293567,0.45676859 2.78942352,0.318323243 1.87745776,0.318323243 L1.87745776,0.318323243 C1.69971028,0.318323243 1.47146635,0.323375993 1.19474585,0.333481493" id="path-15"/>
        <path d="M4.87896634,1.47944517 C6.57968654,1.41375942 6.47061423,1.55725752 3.68422049,1.83819041 L3.68422049,1.83819041 L4.87896634,1.47944517 C3.85287861,1.51986717 2.16528748,1.63810151 0,1.85031701 L0,1.85031701 L0.201985773,2.53041714 L2.32586617,4.32818555 L9.81448869,0 L4.87896634,1.47944517 Z" id="path-17"/>
        <path d="M0.512033934,0.515380488 C0.502944574,0.501232789 0.498904858,0.495169489 0.49789493,0.495169489 L0.49789493,0.495169489 C0.49789493,0.495169489 0.502944574,0.503253889 0.512033934,0.515380488" id="path-19"/>
        <path d="M0.45663376,0.535059471 C0.545507499,0.59670302 0.583884796,0.58558697 0.525308922,0.440067773 L0.525308922,0.440067773 C0.504100416,0.475437022 0.477842266,0.501711322 0.45663376,0.535059471" id="path-21"/>
        <path d="M0.511024005,0.512854114 C0.502944574,0.501738064 0.499914787,0.497695864 0.498904858,0.497695864 L0.498904858,0.497695864 C0.498904858,0.497695864 0.502944574,0.503759164 0.511024005,0.512854114" id="path-23"/>
    </defs>
    <g id="Page-1" stroke="none" stroke-width="1" fill="none" fill-rule="evenodd">
        <g id="MDAA-3370-MPR-|-Career-Center-|-JT-desktop" transform="translate(-860.000000, -220.000000)">
            <g id="Group-141-Copy-2" transform="translate(860.000000, 220.000000)">
                <g id="Group-42">
                    <g id="Group-3">
                        <mask id="mask-2" fill="white">
                            <use xlink:href="#path-1"/>
                        </mask>
                        <g id="Clip-2"/>
                        <path d="M437.770532,283.673016 C445.385395,275.737167 490.452461,225.603782 477.761695,162.840544 C467.799756,113.572191 414.290695,75.2501145 359.065765,93.9291203 C302.547116,113.046705 288.30005,27.4349318 236.90881,6.44176654 C194.88668,-10.7244459 157.906114,10.0059763 140.469693,26.8003064 C117.434225,48.9879417 111.004008,88.2407345 39.7434276,130.794994 C-44.7855984,181.273986 30.6167004,272.386183 38.2901399,283.673016 L437.770532,283.673016 Z" id="Fill-1" fill="#3A4E6C" mask="url(#mask-2)"/>
                    </g>
                    <path d="M203.266463,64.4865446 L165.027527,64.4865446 C159.769837,64.4865446 155.46754,68.7914875 155.46754,74.0524107 L155.46754,85.6110813 C155.46754,90.8720045 159.769837,95.1759368 165.027527,95.1759368 L167.461455,95.1759368 C166.307107,97.1020451 164.230693,99.9588699 164.230693,99.9588699 C168.38857,99.2656326 171.355741,96.4280083 172.487871,95.1759368 L203.266463,95.1759368 C208.524153,95.1759368 212.82645,90.8720045 212.82645,85.6110813 L212.82645,74.0524107 C212.82645,68.7914875 208.524153,64.4865446 203.266463,64.4865446" id="Fill-4" fill="#FFFFFF"/>
                    <path d="M260.409955,87.0643532 L298.648892,87.0643532 C303.906582,87.0643532 308.208879,91.3692961 308.208879,96.6302193 L308.208879,108.18889 C308.208879,113.449813 303.906582,117.753745 298.648892,117.753745 L296.214963,117.753745 C297.369312,119.679854 299.445726,122.536679 299.445726,122.536679 C295.287849,121.843441 292.320678,119.005817 291.188547,117.753745 L260.409955,117.753745 C255.152266,117.753745 250.849969,113.449813 250.849969,108.18889 L250.849969,96.6302193 C250.849969,91.3692961 255.152266,87.0643532 260.409955,87.0643532" id="Fill-6" fill="#FFFFFF"/>
                    <path d="M177.666686,80.6353353 C177.666686,82.7059522 175.989194,84.3844757 173.91985,84.3844757 C171.851515,84.3844757 170.174023,82.7059522 170.174023,80.6353353 C170.174023,78.5647184 171.851515,76.8861949 173.91985,76.8861949 C175.989194,76.8861949 177.666686,78.5647184 177.666686,80.6353353" id="Fill-8" fill="#ECC478"/>
                    <path d="M187.893326,80.6353353 C187.893326,82.7059522 186.215834,84.3844757 184.14649,84.3844757 C182.078156,84.3844757 180.400664,82.7059522 180.400664,80.6353353 C180.400664,78.5647184 182.078156,76.8861949 184.14649,76.8861949 C186.215834,76.8861949 187.893326,78.5647184 187.893326,80.6353353" id="Fill-10" fill="#ECC478"/>
                    <path d="M198.119967,80.6353353 C198.119967,82.7059522 196.442475,84.3844757 194.373131,84.3844757 C192.304797,84.3844757 190.627305,82.7059522 190.627305,80.6353353 C190.627305,78.5647184 192.304797,76.8861949 194.373131,76.8861949 C196.442475,76.8861949 198.119967,78.5647184 198.119967,80.6353353" id="Fill-12" fill="#ECC478"/>
                    <path d="M272.385288,103.026192 C272.385288,105.096809 270.707796,106.775333 268.638452,106.775333 C266.570117,106.775333 264.892626,105.096809 264.892626,103.026192 C264.892626,100.955575 266.570117,99.2770518 268.638452,99.2770518 C270.707796,99.2770518 272.385288,100.955575 272.385288,103.026192" id="Fill-14" fill="#ECC478"/>
                    <path d="M282.611929,103.026192 C282.611929,105.096809 280.934437,106.775333 278.865092,106.775333 C276.796758,106.775333 275.119266,105.096809 275.119266,103.026192 C275.119266,100.955575 276.796758,99.2770518 278.865092,99.2770518 C280.934437,99.2770518 282.611929,100.955575 282.611929,103.026192" id="Fill-16" fill="#ECC478"/>
                    <path d="M292.838569,103.026192 C292.838569,105.096809 291.161077,106.775333 289.091733,106.775333 C287.023399,106.775333 285.345907,105.096809 285.345907,103.026192 C285.345907,100.955575 287.023399,99.2770518 289.091733,99.2770518 C291.161077,99.2770518 292.838569,100.955575 292.838569,103.026192" id="Fill-18" fill="#ECC478"/>
                    <path d="M274.38222,139.328078 L278.850145,141.26126 C279.589413,141.544214 280.364029,141.693776 281.144704,141.706913 L289.475607,141.846369 C291.98528,142.959995 294.495963,144.074631 297.006647,145.189268 C298.356921,144.074631 299.707196,142.959995 301.057471,141.846369 C298.66192,140.49021 296.266369,139.134052 293.870817,137.778905 C293.800122,137.485845 293.505223,134.641147 290.796594,134.282402 L286.339778,133.979237 L283.579642,132.600847 C283.259495,132.44118 282.883801,132.474528 282.603041,132.695839 C282.592942,132.704933 282.581833,132.713018 282.571733,132.722113 C282.039501,133.160692 282.122315,134.05806 282.706054,134.431963 L284.856192,135.808332 C284.856192,135.808332 285.259154,136.717827 284.334059,136.918927 C283.407954,137.120026 279.790389,136.121603 279.597493,135.799237 C279.467212,135.579948 278.601703,133.937804 278.057351,132.904012 C277.803859,132.419958 277.258498,132.207743 276.781811,132.406821 C276.249579,132.629142 275.997096,133.279936 276.220291,133.850897 L276.248569,133.924667 L275.786021,134.163157 C275.298226,134.413773 275.115429,135.057494 275.386089,135.567822 L276.097079,136.908821 C276.279877,137.253419 276.525289,137.554563 276.820188,137.794063 L278.334072,139.026934 L274.976058,137.478772 C274.545829,137.31001 274.070152,137.506056 273.861097,137.938572 C273.604575,138.469111 273.850998,139.127989 274.38222,139.328078" id="Fill-20" fill="#F38574"/>
                    <polygon id="Fill-22" fill="#E9E0D1" points="370.56532 129.507351 344.380895 130.051027 346.039198 209.933992 375.589716 209.319578 379.476933 156.437498"/>
                    <path d="M315.303225,220.072436 L310.739356,220.118921 L312.566318,221.856057 L280.561672,281.150077 C280.136492,281.939316 280.370795,282.961993 281.086835,283.435941 C281.339317,283.601671 281.618058,283.678473 281.890738,283.672742 C282.392673,283.662304 282.878449,283.376318 283.154159,282.86498 L314.891174,224.066129 L377.044216,283.160061 C377.338105,283.438972 377.70067,283.572365 378.059194,283.565291 C378.472255,283.556196 378.880267,283.36116 379.170116,282.989278 C379.711438,282.293009 379.638723,281.241026 379.006508,280.639749 L315.303225,220.072436 Z" id="Fill-24" fill="#E9E0D1"/>
                    <path d="M367.875577,132.438148 C369.053154,152.843173 369.67022,172.283123 369.765154,192.711391 C369.785352,197.092125 366.483895,200.666441 362.334097,200.83015 C344.858288,201.522376 327.37137,201.666885 309.873342,201.264686 C307.318222,201.206074 305.22565,203.38482 305.27037,206.078946 C305.320583,208.997415 305.297355,211.816849 305.409457,214.750476 C305.50237,217.179838 307.342461,219.143336 309.644088,219.288856 C329.455863,220.540927 349.909952,221.203848 369.573267,219.826468 C370.52765,219.759772 371.481023,219.689033 372.434396,219.616274 C381.0299,218.960427 387.743907,211.557138 387.982251,202.471283 C388.008509,201.452648 388.032747,200.435025 388.053955,199.417401 C388.533672,176.806345 387.761076,154.221564 385.738189,131.663056 C385.615987,130.300835 384.563641,129.227631 383.267903,129.147798 C379.026201,128.883033 374.804699,129.654083 370.565017,129.507553 C369.024876,129.453994 367.781653,130.815205 367.875577,132.438148" id="Fill-26" fill="#CAC4BC"/>
                    <path d="M351.795085,86.8338468 C356.877047,85.7050625 365.419026,88.3769566 365.773511,95.8014673 C365.839156,97.1838997 367.054101,98.2005129 368.430634,98.0661098 C372.566292,97.6629003 377.800754,99.2181368 378.550121,104.654896 C378.722819,105.909999 379.829701,106.72147 381.095142,106.733597 C394.020211,106.853852 385.753943,126.424163 377.584629,116.553111 C376.770626,115.569846 375.322388,115.463738 374.30135,116.228725 C370.47675,119.093634 363.834447,117.338308 361.708547,111.62769 C361.202573,110.268501 359.705858,109.612654 358.387901,110.215952 C350.385225,113.880206 341.297885,104.067766 344.273135,92.1877406 L344.184262,94.1633658 C344.521578,90.2303053 345.594122,89.9625095 351.195188,87.0591994 C351.384044,86.9621866 351.58704,86.8803321 351.795085,86.8338468" id="Fill-28" fill="#CA523D"/>
                    <path d="M332.492921,76.2659193 C333.377619,75.7990452 334.687496,75.2351584 336.34075,74.9703943 C340.240085,74.3448638 345.596748,76.4811665 348.364963,79.7745489 C353.078301,85.3831012 347.531772,102.115788 339.46345,103.122296 C331.544598,104.108592 327.599816,99.8531664 325.652673,94.6255913 C324.336736,91.0916981 324.064055,88.2187045 323.889337,84.5857773 C323.898426,84.1047555 323.807533,80.2242436 326.208134,78.0778354 C328.840008,75.7252751 332.071781,76.1972019 332.492921,76.2659193" id="Fill-30" fill="#CA523D"/>
                    <path d="M345.537061,114.316663 C343.338446,113.397062 339.140172,110.335096 339.140172,110.335096 L340.460149,102.469986 C337.713142,106.366666 332.483731,104.137393 332.483731,104.137393 L331.225359,109.231575 C331.225359,109.231575 325.954541,111.493186 325.175885,112.255141 C324.39824,113.016085 332.277705,140.827431 332.683697,140.803194 C333.089688,140.777914 347.318576,117.132055 347.598326,116.706614 C347.611455,116.687413 347.620544,116.674276 347.627614,116.665181 C347.510462,116.802616 349.377821,115.922427 345.537061,114.316663" id="Fill-32" fill="#F38574"/>
                    <path d="M340.311285,103.453958 L341.192953,97.6331902 C341.191943,97.6342007 341.191943,97.6342007 341.191943,97.6352113 C340.830389,98.3213747 340.432477,99.0034959 339.991138,99.6846066 C338.438877,101.899732 335.171757,103.335724 332.541903,103.582298 L332.483327,104.13709 C332.483327,104.13709 336.961351,106.099578 340.311285,103.453958" id="Fill-34" fill="#F38574"/>
                    <path d="M340.919061,97.1966326 C340.938249,97.2259385 340.959458,97.2481706 340.978646,97.276466 C340.902902,97.3300252 340.870584,97.3209302 340.919061,97.1966326 M344.788098,90.1925107 C344.132654,89.7286682 343.05102,90.4158422 342.402646,90.9180856 C342.398606,90.9019168 342.394567,90.8827163 342.390527,90.8645264 C331.340895,91.4354872 330.899556,83.7836027 330.439029,80.8732188 C330.428929,80.8924192 328.701951,84.4727978 326.233685,86.0068127 C324.281492,100.306095 328.813043,104.204797 333.489014,103.777334 C336.296616,103.520654 339.181983,101.507639 340.801909,98.8094703 C340.999855,98.4517357 341.185682,98.0929904 341.367469,97.7342452 C341.609852,97.9616189 341.870414,98.1152225 342.139055,98.1526129 C343.290373,98.3102587 344.092257,96.4953109 344.497238,95.5777315 C345.298112,93.7648049 345.761669,90.8817058 344.788098,90.1925107" id="Fill-36" fill="#F38574"/>
                    <path d="M297.981733,257.724113 L297.981733,257.724113 L297.981733,257.724113 C298.721001,241.420911 298.994692,228.533367 299.078516,219.49905 C298.932076,219.24237 298.788666,218.986701 298.645256,218.730021 C289.957848,220.487368 285.544459,221.161405 283.324635,221.408989 C284.777923,237.692992 287.843057,254.570187 288.534858,258.271831 C288.551017,258.536596 288.593434,258.790244 288.678268,259.027723 C289.840696,262.296852 288.130887,268.654222 288.130887,268.654222 L294.892361,268.99983 C294.892361,268.99983 299.920796,265.025337 298.933086,263.74396 C297.944366,262.462582 297.981733,257.724113 297.981733,257.724113" id="Fill-38" fill="#F38574"/>
                    <path d="M332.027849,253.836427 C331.377455,253.045166 330.583651,251.499024 329.864581,249.933683 C325.671357,233.546604 320.23087,222.225413 315.882116,215.03535 C309.021669,216.567343 303.513517,217.741602 299.085989,218.639981 C299.082959,218.922935 299.080939,219.208921 299.07791,219.498949 C308.810594,236.594423 323.733303,253.967798 323.736333,253.97083 C325.734982,258.426345 327.156962,266.254065 327.156962,266.254065 L331.704672,262.1482 C331.704672,262.1482 333.041817,255.070308 332.027849,253.836427" id="Fill-40" fill="#F38574"/>
                </g>
                <g id="Group-45" transform="translate(290.873333, 169.274312)">
                    <mask id="mask-4" fill="white">
                        <use xlink:href="#path-3"/>
                    </mask>
                    <g id="Clip-44"/>
                    <path d="M57.1723915,1.58757401 C57.1835007,1.60273226 57.0865475,1.63304876 56.880522,1.67448131 L56.880522,1.67448131 L53.8497255,2.58296574 L46.361103,6.9111513 L44.2372226,5.11338289 L44.0352368,4.43328275 C41.1003835,4.72128949 37.2959815,5.18210028 33.0754888,5.85916877 L33.0754888,5.85916877 C18.5102947,9.48906429 2.36355205,15.5816701 0.298247524,24.7291685 L0.298247524,24.7291685 C-1.08737488,30.8591647 2.51605131,40.0753805 7.77172111,49.4553053 L7.77172111,49.4553053 C7.91513101,49.4270099 8.06763027,49.3946723 8.2120501,49.3653664 L8.2120501,49.3653664 C8.28880469,39.9975681 8.16054372,35.0276833 8.16054372,35.0276833 L8.16054372,35.0276833 C8.16054372,35.0276833 39.5188349,37.0174562 56.6189504,32.3931795 L56.6189504,32.3931795 C73.7200759,27.7678923 64.1732183,6.34423276 64.1732183,6.34423276 L64.1732183,6.34423276 L62.4664386,0 L57.1723915,1.58757401 Z" id="Fill-43" mask="url(#mask-4)"/>
                </g>
                <g id="Group-48" transform="translate(298.360254, 218.563887)">
                    <mask id="mask-6" fill="white">
                        <use xlink:href="#path-5"/>
                    </mask>
                    <g id="Clip-47"/>
                    <path d="M0.284799939,0.165730196 C0.429219767,0.422409891 0.571619737,0.678079035 0.718059422,0.934758729 L0.718059422,0.934758729 C0.721089208,0.644730886 0.723109066,0.358745242 0.725128924,0.0757912483 L0.725128924,0.0757912483 C0.580709096,0.105097198 0.428209838,0.137434797 0.284799939,0.165730196" id="Fill-46" mask="url(#mask-6)"/>
                </g>
                <path d="M326.192379,112.987284 L322.748521,113.60372 C322.748521,113.60372 316.815189,139.477842 315.761834,142.741918 C315.761834,142.741918 297.404357,140.904738 294.744204,138.828058 L292.257759,145.101552 C292.257759,145.101552 312.061454,158.43778 322.430394,153.857968 C332.800343,149.278155 333.086153,133.15483 333.086153,133.15483 L326.192379,112.987284 Z" id="Fill-49" fill="#ECC478"/>
                <g id="Group-53" transform="translate(298.360254, 218.563887)">
                    <mask id="mask-8" fill="white">
                        <use xlink:href="#path-7"/>
                    </mask>
                    <g id="Clip-52"/>
                    <path d="M0.284799939,0.165730196 C0.429219767,0.422409891 0.571619737,0.678079035 0.718059422,0.934758729 L0.718059422,0.934758729 C0.721089208,0.644730886 0.723109066,0.358745242 0.725128924,0.0757912483 L0.725128924,0.0757912483 C0.580709096,0.105097198 0.428209838,0.137434797 0.284799939,0.165730196" id="Fill-51" mask="url(#mask-8)"/>
                </g>
                <g id="Group-56" transform="translate(347.395254, 170.400065)">
                    <mask id="mask-10" fill="white">
                        <use xlink:href="#path-9"/>
                    </mask>
                    <g id="Clip-55"/>
                    <path d="M0.358601503,0.548728638 C0.564626992,0.507296089 0.661580162,0.476979589 0.650470945,0.46182134 L0.650470945,0.46182134 L0.358601503,0.548728638 Z" id="Fill-54" mask="url(#mask-10)"/>
                </g>
                <g id="Group-59" transform="translate(347.395254, 170.400065)">
                    <mask id="mask-12" fill="white">
                        <use xlink:href="#path-11"/>
                    </mask>
                    <g id="Clip-58"/>
                    <path d="M0.358601503,0.548728638 C0.564626992,0.507296089 0.661580162,0.476979589 0.650470945,0.46182134 L0.650470945,0.46182134 L0.358601503,0.548728638 Z" id="Fill-57" mask="url(#mask-12)"/>
                </g>
                <g id="Group-62" transform="translate(338.592790, 173.003241)">
                    <mask id="mask-14" fill="white">
                        <use xlink:href="#path-13"/>
                    </mask>
                    <g id="Clip-61"/>
                    <path d="M1.19474585,0.333481493 L0,0.692226735 C2.33293567,0.45676859 2.78942352,0.318323243 1.87745776,0.318323243 L1.87745776,0.318323243 C1.69971028,0.318323243 1.47146635,0.323375993 1.19474585,0.333481493" id="Fill-60" mask="url(#mask-14)"/>
                </g>
                <g id="Group-65" transform="translate(338.592790, 173.003241)">
                    <mask id="mask-16" fill="white">
                        <use xlink:href="#path-15"/>
                    </mask>
                    <g id="Clip-64"/>
                    <path d="M1.19474585,0.333481493 L0,0.692226735 C2.33293567,0.45676859 2.78942352,0.318323243 1.87745776,0.318323243 L1.87745776,0.318323243 C1.69971028,0.318323243 1.47146635,0.323375993 1.19474585,0.333481493" id="Fill-63" mask="url(#mask-16)"/>
                </g>
                <g id="Group-68" transform="translate(334.908570, 171.857278)">
                    <mask id="mask-18" fill="white">
                        <use xlink:href="#path-17"/>
                    </mask>
                    <g id="Clip-67"/>
                    <path d="M4.87896634,1.47944517 C6.57968654,1.41375942 6.47061423,1.55725752 3.68422049,1.83819041 L3.68422049,1.83819041 L4.87896634,1.47944517 C3.85287861,1.51986717 2.16528748,1.63810151 0,1.85031701 L0,1.85031701 L0.201985773,2.53041714 L2.32586617,4.32818555 L9.81448869,0 L4.87896634,1.47944517 Z" id="Fill-66" mask="url(#mask-18)"/>
                </g>
                <g id="Group-89" transform="translate(91.303730, 99.198835)">
                    <path d="M274.843152,84.2636993 C274.369495,81.0814774 273.369666,78.0073844 271.962835,75.1212537 C271.284162,73.7297264 270.426733,72.4362224 269.493559,71.2023409 C268.506858,69.8977208 267.109117,67.9443277 266.160793,66.1829391 C265.557866,65.0622392 265.134706,64.0193516 265.118547,63.2735657 L258.993328,63.400895 L240.413667,63.7869251 L243.336401,73.6054287 C240.056152,74.2238853 236.406269,74.996956 232.645294,75.9347464 C216.683368,78.49548 194.851736,84.1474861 192.284497,95.1907762 C190.81808,101.494587 191.085711,111.727416 192.020906,122.209851 C194.241739,121.962266 198.654118,121.288229 207.341526,119.530883 C207.483926,119.502588 207.637436,119.47025 207.781855,119.441955 C212.209384,118.542565 217.718545,117.368306 224.577982,115.837323 C220.34739,108.843306 217.149956,105.760118 217.149956,105.760118 C217.149956,105.760118 248.239606,106.58978 265.108447,101.984704 C274.948184,99.2986619 275.822783,90.8433902 274.843152,84.2636993" id="Fill-69" fill="#6CB4C0"/>
                    <path d="M235.412499,182.395378 C235.026706,182.029559 234.759075,181.569759 234.578298,181.051347 C234.365203,180.438953 234.323796,179.656788 234.380352,178.799841 C234.54194,176.366437 235.075183,173.085181 235.286258,171.531966 C235.450876,170.317285 236.117429,167.822237 235.639733,166.337739 C236.702178,165.540415 237.899954,164.422747 238.957349,162.871553 C241.514489,159.122412 240.819658,156.744588 240.723715,154.637591 C243.088968,154.438513 245.457252,154.649718 247.958845,155.878547 C248.126494,155.960401 248.288082,156.041245 248.444621,156.121079 C249.683804,156.751662 250.235225,158.302856 249.677744,159.655982 C246.914579,166.370077 238.965429,178.938287 236.878916,182.164973 C236.54261,182.685406 235.847778,182.807682 235.412499,182.395378" id="Fill-71" fill="#ECC478"/>
                    <path d="M187.140929,182.520787 C187.030847,181.970038 187.068214,181.420298 187.207585,180.877633 C187.372203,180.237955 187.767085,179.570992 188.282149,178.90605 C189.745536,177.018343 192.260259,174.310069 193.280287,173.175221 C194.078131,172.287958 196.532258,168.382183 196.962487,166.856252 C198.252167,166.894653 200.231627,168.095186 201.931337,167.51412 C206.037708,166.109456 206.250803,164.706812 207.328397,162.92016 C209.336136,164.296529 211.12169,166.010422 212.457826,168.643915 C212.5467,168.820761 212.632544,168.992555 212.714348,169.159296 C213.363732,170.482105 212.956731,172.110101 211.768045,172.855887 C205.87107,176.55349 191.886585,182.003386 188.444747,183.286784 C187.889287,183.493947 187.265151,183.141265 187.140929,182.520787" id="Fill-73" fill="#ECC478"/>
                    <path d="M234.093128,37.8734931 C234.093128,37.8734931 231.440045,37.2722159 229.255569,34.3557686 C226.955961,31.2847073 226.445947,27.2243174 227.81642,23.6398967 C228.760704,21.169102 230.048363,17.7605169 230.971438,15.1583507 C231.770292,12.9048243 233.563925,11.4445795 235.883732,10.8695766 L237.531936,10.5239685 C237.784418,10.4714199 238.000543,10.7099097 237.922778,10.9564839 C237.585462,12.0286774 237.100696,14.4014488 238.795357,15.8131871 C240.905098,17.569523 246.383962,19.3541542 251.827479,12.9725311 C251.827479,12.9725311 260.867352,18.4790179 261.803556,21.0023612 C261.803556,21.0023612 259.575653,50.1769391 259.039381,58.7069914 C258.974745,59.7407841 259.078768,60.6846378 259.319131,61.5607846 L240.542534,64.3145333 L234.093128,37.8734931 Z" id="Fill-75" fill="#ECC478"/>
                    <path d="M262.234594,21.6355719 C260.975213,19.2496634 257.520246,19.2385473 256.311361,21.6497196 C253.63101,26.9894656 256.799157,40.7652829 258.126203,45.9615309 C258.580671,47.74212 259.660285,52.3744811 258.671565,53.2425435 C257.906039,53.9135487 242.814672,57.2665535 236.0229,58.7500409 L236.899518,64.8658893 C246.491823,66.0239796 272.234909,65.0114085 274.933439,57.4454209 C277.7572,49.5297829 265.916794,28.6124089 262.234594,21.6355719" id="Fill-77" fill="#E2B66F"/>
                    <path d="M247.392477,120.635414 L242.828609,120.681899 L244.400058,122.176503 L212.396422,181.470523 C211.970232,182.259762 212.205546,183.282439 212.921585,183.756387 C213.174068,183.922117 213.451798,183.998919 213.725489,183.993188 C214.227423,183.98275 214.713199,183.695754 214.98891,183.185426 L246.724914,124.386576 L308.877956,183.480507 C309.171846,183.759418 309.53441,183.892811 309.892935,183.885737 C310.305996,183.876642 310.714007,183.681606 311.003857,183.309724 C311.546188,182.613455 311.472464,181.561472 310.840248,180.960195 L247.392477,120.635414 Z" id="Fill-79" fill="#E9E0D1"/>
                    <path d="M0,94.7247106 L0,24.4328752 L42.193818,24.4328752 C46.7142596,24.4328752 50.3792914,27.9718213 50.3792914,32.3363866 L50.3792914,105.266768 L10.917331,105.266768 C4.8880557,105.266768 0,100.546489 0,94.7247106" id="Fill-81" fill="#E8DFD0"/>
                    <path d="M50.7988159,175.86288 L34.4531172,175.86288 L34.4531172,121.873237 L29.8155239,121.873237 L29.8155239,175.86288 L13.4698252,175.86288 C10.1612983,175.86288 7.4789272,178.546901 7.4789272,181.858473 L7.4789272,184.729445 L56.7907238,184.729445 L56.7907238,181.858473 C56.7907238,178.546901 54.1083527,175.86288 50.7988159,175.86288" id="Fill-83" fill="#E9E0D1"/>
                    <path d="M20.4761057,16.7515838 C20.4932745,16.3231106 28.6161324,12.61035 28.6161324,12.61035 L27.5042007,5.64159736 C30.7480922,10.1658296 36.8339235,7.51414647 36.8339235,7.51414647 L37.3479773,12.0181677 C37.3479773,12.0181677 44.3619333,13.1429098 45.2779387,14.02512 C46.1929343,14.9073301 37.4156425,50.3584339 36.940976,50.3331836 C36.4663094,50.3079064 19.5035442,20.0429451 19.1732975,19.5497967 C19.1581485,19.526554 19.1470393,19.5124063 19.1389599,19.5012903 C19.2763102,19.6599466 20.2771497,21.6113187 20.4761057,16.7515838" id="Fill-85" fill="#F38574"/>
                    <path d="M27.6870988,6.78887475 L26.6034451,0 C26.604455,0.00101054998 26.604455,0.00101054998 26.605465,0.00202109995 C27.0336748,0.799345032 27.5053116,1.59363731 28.0264349,2.3838874 C29.8594558,4.95674764 33.6870862,6.60293355 36.7602997,6.8666871 L36.8340245,7.51444963 C36.8340245,7.51444963 31.6238015,9.84780953 27.6870988,6.78887475" id="Fill-87" fill="#F38574"/>
                </g>
                <g id="Group-92" transform="translate(111.003301, 116.853042)">
                    <mask id="mask-20" fill="white">
                        <use xlink:href="#path-19"/>
                    </mask>
                    <g id="Clip-91"/>
                    <path d="M0.512033934,0.515380488 C0.502944574,0.501232789 0.498904858,0.495169489 0.49789493,0.495169489 L0.49789493,0.495169489 C0.49789493,0.495169489 0.502944574,0.503253889 0.512033934,0.515380488" id="Fill-90" mask="url(#mask-20)"/>
                </g>
                <g id="Group-95" transform="translate(117.697974, 98.245307)">
                    <mask id="mask-22" fill="white">
                        <use xlink:href="#path-21"/>
                    </mask>
                    <g id="Clip-94"/>
                    <path d="M0.45663376,0.535059471 C0.545507499,0.59670302 0.583884796,0.58558697 0.525308922,0.440067773 L0.525308922,0.440067773 C0.504100416,0.475437022 0.477842266,0.501711322 0.45663376,0.535059471" id="Fill-93" mask="url(#mask-22)"/>
                </g>
                <g id="Group-112" transform="translate(103.757125, 168.982364)">
                    <path d="M105.647787,87.4828063 L99.7902,90.3719687 C99.7902,90.3719687 104.845904,99.7832206 104.90347,101.541578 C104.960026,103.299935 113.167718,103.592994 113.167718,103.592994 L117.194304,95.6965565 C117.194304,95.6965565 112.768796,94.4788438 111.470027,90.9590982 C109.772337,86.3550325 98.7297747,71.827366 98.7297747,71.827366 L105.647787,87.4828063 Z" id="Fill-96" fill="#F38574"/>
                    <path d="M113.971823,97.8046648 L112.02367,96.090772 C112.02367,96.090772 112.341798,94.3485839 115.091834,92.1051629 C115.091834,92.1051629 120.941342,94.9862409 124.155946,94.4789448 C125.896053,94.2050858 129.310623,93.0207212 132.034401,92.7852631 C129.000574,96.1605 123.224791,100.201689 113.971823,97.8046648" id="Fill-98" fill="#CA523D"/>
                    <path d="M105.727673,109.312505 C105.819576,109.504509 105.90946,109.69045 105.998334,109.869318 C106.700234,111.292172 108.435292,111.899513 109.952205,111.227497 C117.475165,107.896724 132.17771,98.0893367 135.795275,95.6114682 C136.378004,95.2112904 136.517374,94.4048715 136.056846,93.9086915 C135.647825,93.4691022 135.134781,93.1689689 134.554072,92.9698905 C133.87035,92.7354429 132.994742,92.7031053 132.0343,92.7859704 C129.000473,96.1601968 123.22469,100.201386 113.971722,97.8043616 C107.809136,101.58584 104.389517,100.564174 104.389517,100.564174 C104.103707,103.439188 104.292564,106.302076 105.727673,109.312505" id="Fill-100" fill="#CA523D"/>
                    <path d="M49.3667747,91.8442389 L42.8709122,91.1722232 C42.8709122,91.1722232 42.1478032,101.832515 41.2610856,103.351372 C40.3743681,104.870228 47.1681595,109.488442 47.1681595,109.488442 L54.7759537,104.946019 C54.7759537,104.946019 51.6754721,101.559666 52.4480676,97.8873278 C53.4579965,93.0851943 51.833021,74.9054002 51.833021,74.9054002 L49.3667747,91.8442389 Z" id="Fill-102" fill="#F38574"/>
                    <path d="M50.9265088,105.015444 L50.1882508,102.52747 C50.1882508,102.52747 51.3829967,101.22184 54.9056285,100.786293 C54.9056285,100.786293 58.3262576,106.339265 61.3176669,107.621653 C62.9365829,108.31489 66.4571949,109.130404 68.8891036,110.382475 C64.5262109,111.624441 57.4870067,111.97106 50.9265088,105.015444" id="Fill-104" fill="#CA523D"/>
                    <path d="M59.5880627,112.094751 C60.1112059,112.095762 60.6171802,112.094751 61.102956,112.09374 C60.6171802,112.094751 60.1112059,112.095762 59.5880627,112.094751 M37.8271255,110.370753 C37.8028872,110.580947 37.7796588,110.787099 37.7594603,110.986178 C37.5978716,112.563646 38.7441409,114.001659 40.3852753,114.240149 C48.5273218,115.425524 66.1909776,114.948544 70.5710391,114.776751 C71.2769794,114.748455 71.8233509,114.139094 71.6981197,113.474152 C71.5860176,112.883991 71.310307,112.357494 70.9245142,111.879504 C70.4700462,111.316627 69.7459272,110.823479 68.8895075,110.381869 C64.5266149,111.623835 57.4874107,111.971464 50.9269128,105.015848 C43.697842,104.936015 41.3457177,102.250984 41.3457177,102.250984 C39.5753124,104.532805 38.2129183,107.057159 37.8271255,110.370753" id="Fill-106" fill="#CA523D"/>
                    <path d="M13.7010359,1.53906762 L12.8021992,8.58260096 C12.8021992,8.58260096 5.62665462,32.9358449 25.0738448,35.3207428 C44.521035,37.7066513 77.3507926,32.8347899 77.3507926,32.8347899 C77.3507926,32.8347899 74.8825264,53.1377495 97.9422321,91.4517413 L110.335069,86.4212235 C110.335069,86.4212235 101.197233,34.3223194 94.1024826,16.3294771 C87.7692187,0.264764094 28.6510128,0 28.6510128,0 L13.7010359,1.53906762 Z" id="Fill-108" fill="#ECC478"/>
                    <path d="M2.15037848,1.75350632 L1.11621133,10.6453356 C1.11621133,10.6453356 -5.07364268,33.6767801 11.6992559,35.9323277 C28.4721544,38.1878752 49.6140053,35.6968695 49.6140053,35.6968695 C49.6140053,35.6968695 39.921718,60.2542445 40.2842824,91.7935093 L58.4458332,91.7935093 C58.4458332,91.7935093 77.2507086,36.526531 71.1325595,19.5108905 C65.6698543,4.31929271 19.1495011,2.7499086 19.1495011,2.7499086 L2.15037848,1.75350632 Z" id="Fill-110" fill="#ECC478"/>
                </g>
                <g id="Group-115" transform="translate(114.483516, 116.362420)">
                    <mask id="mask-24" fill="white">
                        <use xlink:href="#path-23"/>
                    </mask>
                    <g id="Clip-114"/>
                    <path d="M0.511024005,0.512854114 C0.502944574,0.501738064 0.499914787,0.497695864 0.498904858,0.497695864 L0.498904858,0.497695864 C0.498904858,0.497695864 0.502944574,0.503759164 0.511024005,0.512854114" id="Fill-113" mask="url(#mask-24)"/>
                </g>
                <g id="Group-140" transform="translate(77.329748, 73.200409)">
                    <path d="M65.4102647,59.1667991 C65.0729484,53.7906732 64.7356322,48.4145473 64.397306,43.0384214 C62.977346,41.4326575 62.1916214,40.9243509 59.08811,39.864284 C58.6255626,39.7056276 54.5676684,38.6506134 54.1273394,38.5465268 C53.3113169,41.9985655 53.3153566,43.5709813 49.987641,44.1075833 C46.1064844,44.7341243 42.4172142,43.1030966 40.9215096,39.1710467 C39.027893,39.5085704 28.6135065,44.8725697 26.8451211,46.7309711 C25.4493994,53.027708 27.4086614,89.6177016 27.0642757,101.500759 C29.5658695,102.383979 52.0660746,101.940348 61.6230314,95.7820564 C61.5351676,93.7397349 61.8957122,76.3663597 63.4237346,60.5431682 C64.0983671,60.0884207 64.7598705,59.629631 65.4102647,59.1667991" id="Fill-116" fill="#CA523D"/>
                    <path d="M58.3914611,16.3108904 C58.3338951,15.57521 58.3763121,13.4550761 58.2823887,12.6607838 C57.8551888,12.644615 57.2502414,13.5813949 56.8109224,13.3560422 C55.5889085,12.7295012 42.108378,11.4461028 41.000486,12.2595955 C38.9715389,13.7501567 39.4593346,20.1590647 39.396719,19.2859495 C39.3694509,19.2950445 39.3442027,19.30515 39.3159247,19.3142449 C39.311885,19.3354664 39.3068353,19.3576985 39.3017857,19.376899 C38.5413092,18.7968433 37.2708187,18.0045721 36.5103423,18.5512797 C35.3802319,19.3647724 35.747846,21.519265 36.699199,23.6282828 C37.181945,24.6964341 38.1353178,26.8084835 39.4775133,26.6134474 C39.7916012,26.5679726 40.0945798,26.3850631 40.3753401,26.1172673 C40.5904549,26.535635 40.8106194,26.9529922 41.0459328,27.3683282 C41.0984491,27.4552355 41.1560151,27.5381006 41.2115612,27.6239974 C43.1526444,30.6283624 46.4399629,32.8354036 49.6313381,33.1021888 C54.6254363,33.5175248 59.442797,29.7077514 58.3914611,16.3108904" id="Fill-118" fill="#F38574"/>
                    <path d="M36.2940155,7.67543764 C37.2544579,7.389452 39.7489822,8.73853622 39.7489822,8.73853622 L39.7681708,8.73449402 C40.9881649,6.30816353 42.6292993,1.61112723 45.9974121,1.41710163 C46.7498091,1.37364799 48.2576329,2.12953937 48.7959249,2.27606912 C49.6018482,1.17153799 50.8309316,-0.0926600317 52.4215696,0.00536331608 C54.7797535,0.150882513 55.0675832,2.25080537 55.0675832,2.25080537 C55.0675832,2.25080537 56.347163,-0.681810669 59.1335568,0.672326301 C61.9209604,2.02747382 59.5950943,5.71193904 59.5950943,5.71193904 L59.1285071,6.24348833 C62.4390539,7.73708119 62.2411079,12.2481763 57.3308338,13.555828 C55.6553618,14.0014805 53.8031522,14.2712973 51.9741711,14.4259115 C52.2852292,19.0471565 41.4638414,14.3470886 41.4638414,14.3470886 C41.8960909,18.6358627 39.1874617,19.5069568 39.1874617,19.5069568 C39.1874617,19.5069568 30.8686777,9.29130706 36.2940155,7.67543764" id="Fill-120" fill="#092347"/>
                    <path d="M1.78858402,50.4312009 L15.4367627,50.4312009 L15.4367627,120.723036 C15.4367627,126.544815 20.0632468,131.265094 25.7703548,131.265094 L63.1245937,131.265094 L74.4741742,131.265094 C77.7503835,131.265094 80.4064964,133.974378 80.4064964,137.315256 L80.4064964,141.821299 C80.4064964,145.163187 77.7503835,147.871461 74.4741742,147.871461 L63.1245937,147.871461 L42.1746293,147.871461 L21.5034054,147.871461 C9.62664192,147.871461 0,138.050937 0,125.936464 L0,52.2562541 C0,51.2477252 0.800873588,50.4312009 1.78858402,50.4312009" id="Fill-122" fill="#CAC4BC"/>
                    <path d="M56.1251807,82.1613585 C56.1251807,82.1613585 32.85137,83.7691436 30.5992287,80.3181154 C27.9047385,76.1890082 36.9193635,54.863372 31.9525333,48.2735756 C30.3982528,46.2110431 27.7249711,45.0529528 26.3837856,47.259994 C21.8128476,54.7764647 7.69101226,80.3261998 16.7228061,93.57451 C21.2826349,100.261319 56.5978274,89.5141202 56.5978274,89.5141202 L56.1251807,82.1613585 Z" id="Fill-124" fill="#BF4C3C"/>
                    <path d="M94.2433297,48.8209905 L102.574233,48.6825452 C103.354908,48.669408 104.129523,48.5188361 104.867781,48.2368926 L109.336717,46.3027 C109.866929,46.1036216 110.114362,45.4447431 109.85784,44.9131938 C109.648785,44.4816889 109.173108,44.2856422 108.742878,44.4544041 L105.383855,46.0015561 L106.898748,44.7686851 C107.192638,44.5291848 107.43906,44.2280409 107.621857,43.8834433 L108.332847,42.5434541 C108.602498,42.0331263 108.419701,41.3883954 107.932915,41.137779 L107.470368,40.9002998 L107.498646,40.8265297 C107.72184,40.2555689 107.468348,39.6047747 106.936116,39.3824537 C106.460439,39.1833754 105.915078,39.3955909 105.661585,39.8786338 C105.117234,40.9124264 104.251725,42.5545701 104.120434,42.7738595 C103.927538,43.0972355 100.309972,44.0946483 99.3848776,43.8935488 C98.4597827,43.6924494 98.8627444,42.783965 98.8627444,42.783965 L101.011873,41.4075959 C101.595612,41.0336924 101.679436,40.136324 101.147203,39.6967348 C101.137104,39.6876398 101.125995,39.6795554 101.115896,39.671471 C100.834125,39.44915 100.459442,39.4168124 100.139294,39.5764793 L97.3791589,40.953859 L92.9223428,41.2570239 C90.2137136,41.6167797 89.9178044,44.4604674 89.8481193,44.7535269 L84.2399843,53.5523855 L90.7075688,58.6162515 L94.2433297,48.8209905 Z" id="Fill-126" fill="#F38574"/>
                    <path d="M88.1457832,70.8481505 L95.5687604,50.5724757 L84.7524223,47.5822584 L78.3706818,64.7272493 L65.0951669,40.9479978 C62.6693177,38.1669642 59.315344,37.3150706 56.4350269,39.9990913 C53.9617111,42.3031453 53.4022105,46.7172276 55.0675832,49.6650019 C57.1500565,53.3504776 60.0485523,58.1940437 63.3106226,62.8395419 C66.2262872,66.9908812 69.4318014,70.9845747 72.6120674,73.851505 C74.7207989,75.751339 77.5778876,77.4642212 80.4066984,77.37024 C80.4309366,77.37024 80.4551749,77.3692295 80.4794132,77.3682189 C83.988916,77.2277525 86.9318487,74.163765 88.1457832,70.8481505" id="Fill-128" fill="#CA523D"/>
                    <path d="M78.3097831,84.925718 C78.2077802,84.4366118 77.7775505,84.117278 77.301874,84.177911 L73.5237302,84.8832749 L75.3618007,84.025318 C75.7193155,83.8585772 76.0435027,83.6170558 76.3141636,83.3169224 L77.3695393,82.145695 C77.770481,81.7000425 77.7482626,81.0037735 77.3200528,80.6268384 L76.9140614,80.2691037 L76.9605181,80.2013969 C77.3301521,79.6829847 77.2392585,78.961452 76.7585323,78.6016963 C76.3283026,78.2793308 75.7243652,78.3541115 75.3466518,78.7775319 C74.5376988,79.6819742 73.2500395,81.1169551 73.0632026,81.3049174 C72.787492,81.5807976 68.8871468,81.6656838 68.0044689,81.2260945 C67.1217911,80.7875159 67.7570364,79.9740231 67.7570364,79.9740231 L70.2717592,79.1342561 C70.9554811,78.9058718 71.2655292,78.0216406 70.8393393,77.4425954 C70.8312598,77.4314794 70.8221705,77.4203633 70.814091,77.4092473 C70.586857,77.1131561 70.2162131,76.9848163 69.8536487,77.0646497 L66.7218593,77.7498026 L62.1499113,76.9191305 C59.3281701,76.5907018 58.3131916,79.3838619 58.1687717,79.6617632 C57.511308,79.749681 56.8538444,79.8375989 56.1963807,79.9255167 C56.3307012,81.8839626 56.4660317,83.8424084 56.6013621,85.8018648 C58.2596653,85.4956682 59.9179685,85.1904821 61.5762717,84.885296 L70.0132174,86.8700162 C70.8039917,87.0549468 71.6230441,87.1014321 72.4400765,87.0054299 L77.4341747,86.1939582 C78.0199335,86.1282725 78.4350142,85.5269952 78.3097831,84.925718" id="Fill-130" fill="#F38574"/>
                    <path d="M213.206486,68.6342376 L209.506107,68.6342376 C208.920348,68.6342376 208.503248,69.2072194 208.679985,69.7690852 L217.529992,97.8451953 C217.644114,98.2069721 217.9784,98.4525358 218.355104,98.4525358 L240.114021,98.4525358 C233.953455,97.203496 228.252406,94.3860827 223.677429,90.0952875 C216.2797,83.1578619 213.934645,74.354961 213.206486,68.6342376" id="Fill-132" fill="#FFFFFF"/>
                    <path d="M241.816458,97.3181934 L232.966451,69.2420834 C232.853339,68.8803065 232.519053,68.6337323 232.14134,68.6337323 L213.206183,68.6337323 C213.935352,74.3544558 216.280407,83.1573566 223.677126,90.0957927 C228.252103,94.386588 233.953152,97.2040013 240.113718,98.4530411 L240.991346,98.4530411 C241.577105,98.4530411 241.993196,97.8800592 241.816458,97.3181934" id="Fill-134" fill="#FFFFFF"/>
                    <path d="M244.12051,84.9672516 L244.804232,84.5893059 C244.804232,84.5893059 243.40144,83.4746693 242.218814,83.2614433 C241.037197,83.0492278 237.190378,82.6419761 237.190378,82.6419761 L238.15385,85.6968687 L244.12051,84.9672516 Z" id="Fill-136" fill="#F38574"/>
                    <path d="M244.804838,84.5891038 C244.689706,84.5830405 243.476781,83.5078153 242.150745,83.9019298 C240.823698,84.2950338 236.930422,86.4151676 236.528471,86.3444291 C236.528471,86.3444291 231.652534,83.3057053 229.943734,82.9206858 C228.234935,82.5356663 227.662305,83.935278 227.73199,84.0646284 C227.801675,84.1949893 228.514685,84.5274603 228.514685,84.5274603 C228.15717,84.5587873 227.860251,84.8467941 227.787536,85.2318136 L227.758248,85.3894594 C227.676444,85.8179326 227.893579,86.2423636 228.267252,86.3878828 L229.281221,86.7840184 L229.097414,86.7334909 C228.640926,86.6081827 228.174339,86.9123582 228.055167,87.413591 C227.946095,87.8703596 228.16222,88.3412759 228.560132,88.5140799 L235.513492,91.5376455 C236.792062,92.0924374 238.202933,92.185408 239.539068,91.8003885 L244.411975,90.3977451 C244.411975,90.3977451 245.934948,90.2208988 251.065387,90.4280616 L250.255424,84.653779 L244.804838,84.5891038 Z" id="Fill-138" fill="#F38574"/>
                </g>
            </g>
        </g>
    </g>
</svg>