<svg width="148" height="98" viewBox="0 0 148 98" fill="none" xmlns="http://www.w3.org/2000/svg">
<rect width="130" height="46" fill="#FDFCFF"/>
<line x1="81.08" x2="81.08" y2="46" stroke="black" stroke-width="2"/>
<rect x="82.16" width="47.84" height="46" fill="#F6F6F6"/>
<path d="M44.104 26.488L40.504 17.16C40.3973 16.8827 40.2853 16.5627 40.168 16.2C40.0507 15.8267 39.9387 15.432 39.832 15.016C39.608 15.88 39.3787 16.6 39.144 17.176L35.544 26.488H44.104ZM50.568 35H48.168C47.8907 35 47.6667 34.9307 47.496 34.792C47.3253 34.6533 47.1973 34.4773 47.112 34.264L44.968 28.728H34.68L32.536 34.264C32.472 34.456 32.3493 34.6267 32.168 34.776C31.9867 34.9253 31.7627 35 31.496 35H29.096L38.264 12.072H41.4L50.568 35Z" fill="black"/>
<rect x="112" y="22.6777" width="25" height="25" transform="rotate(-45 112 22.6777)" fill="#F6F6F6"/>
<path fill-rule="evenodd" clip-rule="evenodd" d="M130 52H0V57.3223L17.3553 74.6776L0 92.033V98H130V52Z" fill="#FDFCFF"/>
<line x1="81.08" y1="52" x2="81.08" y2="98" stroke="black" stroke-width="2"/>
<rect x="82.16" y="52" width="47.84" height="46" fill="#F6F6F6"/>
<path d="M40.976 85.536C41.8613 85.536 42.624 85.4347 43.264 85.232C43.904 85.0293 44.4267 84.7467 44.832 84.384C45.248 84.0107 45.552 83.5733 45.744 83.072C45.936 82.56 46.032 82 46.032 81.392C46.032 80.208 45.6107 79.2747 44.768 78.592C43.9253 77.8987 42.6613 77.552 40.976 77.552H36.016V85.536H40.976ZM36.016 67.52V75.344H40.112C40.9867 75.344 41.744 75.248 42.384 75.056C43.0347 74.864 43.568 74.5973 43.984 74.256C44.4107 73.9147 44.7253 73.504 44.928 73.024C45.1307 72.5333 45.232 72 45.232 71.424C45.232 70.0693 44.8267 69.0827 44.016 68.464C43.2053 67.8347 41.9467 67.52 40.24 67.52H36.016ZM40.24 65.072C41.648 65.072 42.8587 65.2107 43.872 65.488C44.896 65.7653 45.7333 66.16 46.384 66.672C47.0453 67.184 47.5307 67.8133 47.84 68.56C48.1493 69.296 48.304 70.128 48.304 71.056C48.304 71.6213 48.2133 72.1653 48.032 72.688C47.8613 73.2 47.6 73.68 47.248 74.128C46.896 74.576 46.448 74.9813 45.904 75.344C45.3707 75.696 44.7413 75.984 44.016 76.208C45.7013 76.528 46.9653 77.1307 47.808 78.016C48.6613 78.8907 49.088 80.0427 49.088 81.472C49.088 82.4427 48.9067 83.328 48.544 84.128C48.192 84.928 47.6693 85.616 46.976 86.192C46.2933 86.768 45.4507 87.216 44.448 87.536C43.4453 87.8453 42.304 88 41.024 88H32.928V65.072H40.24Z" fill="black"/>
</svg>
