<svg width="1118" height="217" viewBox="0 0 1118 217" fill="none" xmlns="http://www.w3.org/2000/svg">
<path d="M333.6 157.7V174H252.3V30.7H271.6V157.7H333.6ZM369.634 72.6999V174H351.834V72.6999H369.634ZM373.434 40.9C373.434 42.6333 373.068 44.2667 372.334 45.8C371.668 47.2667 370.734 48.6 369.534 49.8C368.401 50.9333 367.034 51.8333 365.434 52.5C363.901 53.1667 362.268 53.5 360.534 53.5C358.801 53.5 357.168 53.1667 355.634 52.5C354.168 51.8333 352.868 50.9333 351.734 49.8C350.601 48.6 349.701 47.2667 349.034 45.8C348.368 44.2667 348.034 42.6333 348.034 40.9C348.034 39.1667 348.368 37.5333 349.034 36C349.701 34.4 350.601 33.0333 351.734 31.9C352.868 30.7 354.168 29.7666 355.634 29.0999C357.168 28.4332 358.801 28.0999 360.534 28.0999C362.268 28.0999 363.901 28.4332 365.434 29.0999C367.034 29.7666 368.401 30.7 369.534 31.9C370.734 33.0333 371.668 34.4 372.334 36C373.068 37.5333 373.434 39.1667 373.434 40.9ZM415.681 87.4C417.881 84.933 420.215 82.6999 422.681 80.6999C425.148 78.6999 427.748 77 430.481 75.5999C433.281 74.1332 436.215 73.0333 439.281 72.3C442.415 71.5 445.781 71.0999 449.381 71.0999C454.915 71.0999 459.781 72.0333 463.981 73.9C468.248 75.7 471.781 78.2999 474.581 81.6999C477.448 85.0329 479.615 89.067 481.081 93.8C482.548 98.533 483.281 103.767 483.281 109.5V174H465.381V109.5C465.381 101.833 463.615 95.8999 460.081 91.7C456.615 87.433 451.315 85.3 444.181 85.3C438.915 85.3 433.981 86.5669 429.381 89.0999C424.848 91.6329 420.648 95.0669 416.781 99.3999V174H398.881V72.6999H409.581C412.115 72.6999 413.681 73.9333 414.281 76.4L415.681 87.4ZM528.305 26.7V113.4H532.905C534.238 113.4 535.338 113.233 536.205 112.9C537.138 112.5 538.105 111.733 539.105 110.6L571.105 76.3C572.038 75.1667 573.005 74.2999 574.005 73.6999C575.071 73.0332 576.471 72.6999 578.205 72.6999H594.305L557.005 112.4C555.205 114.667 553.271 116.433 551.205 117.7C552.405 118.5 553.471 119.433 554.405 120.5C555.405 121.5 556.338 122.667 557.205 124L596.805 174H580.905C579.371 174 578.038 173.767 576.905 173.3C575.838 172.767 574.905 171.833 574.105 170.5L540.805 129C539.805 127.6 538.805 126.7 537.805 126.3C536.871 125.833 535.405 125.6 533.405 125.6H528.305V174H510.405V26.7H528.305ZM674.103 112.3C674.103 108.167 673.503 104.4 672.303 101C671.17 97.533 669.47 94.5669 667.203 92.0999C665.003 89.5669 662.303 87.633 659.103 86.3C655.903 84.9 652.27 84.1999 648.203 84.1999C639.67 84.1999 632.903 86.7 627.903 91.7C622.97 96.6329 619.903 103.5 618.703 112.3H674.103ZM688.503 159.8C686.303 162.467 683.67 164.8 680.603 166.8C677.536 168.733 674.236 170.333 670.703 171.6C667.236 172.867 663.636 173.8 659.903 174.4C656.17 175.067 652.47 175.4 648.803 175.4C641.803 175.4 635.336 174.233 629.403 171.9C623.536 169.5 618.436 166.033 614.103 161.5C609.836 156.9 606.503 151.233 604.103 144.5C601.703 137.767 600.503 130.033 600.503 121.3C600.503 114.233 601.57 107.633 603.703 101.5C605.903 95.367 609.036 90.0669 613.103 85.5999C617.17 81.0669 622.136 77.533 628.003 75C633.87 72.4 640.47 71.0999 647.803 71.0999C653.87 71.0999 659.47 72.1332 664.603 74.1999C669.803 76.1999 674.27 79.1329 678.003 83C681.803 86.7999 684.77 91.533 686.903 97.2C689.036 102.8 690.103 109.2 690.103 116.4C690.103 119.2 689.803 121.067 689.203 122C688.603 122.933 687.47 123.4 685.803 123.4H618.103C618.303 129.8 619.17 135.367 620.703 140.1C622.303 144.833 624.503 148.8 627.303 152C630.103 155.133 633.436 157.5 637.303 159.1C641.17 160.633 645.503 161.4 650.303 161.4C654.77 161.4 658.603 160.9 661.803 159.9C665.07 158.833 667.87 157.7 670.203 156.5C672.536 155.3 674.47 154.2 676.003 153.2C677.603 152.133 678.97 151.6 680.103 151.6C681.57 151.6 682.703 152.167 683.503 153.3L688.503 159.8ZM777.967 96.8C774.634 92.333 771.034 89.233 767.167 87.5C763.301 85.7 758.967 84.8 754.167 84.8C744.767 84.8 737.534 88.1669 732.467 94.8999C727.401 101.633 724.867 111.233 724.867 123.7C724.867 130.3 725.434 135.967 726.567 140.7C727.701 145.367 729.367 149.233 731.567 152.3C733.767 155.3 736.467 157.5 739.667 158.9C742.867 160.3 746.501 161 750.567 161C756.434 161 761.534 159.667 765.867 157C770.267 154.333 774.301 150.567 777.967 145.7V96.8ZM795.767 26.7V174H785.167C782.634 174 781.034 172.767 780.367 170.3L778.767 158C774.434 163.2 769.501 167.4 763.967 170.6C758.434 173.8 752.034 175.4 744.767 175.4C738.967 175.4 733.701 174.3 728.967 172.1C724.234 169.833 720.201 166.533 716.867 162.2C713.534 157.867 710.967 152.467 709.167 146C707.367 139.533 706.467 132.1 706.467 123.7C706.467 116.233 707.467 109.3 709.467 102.9C711.467 96.4329 714.334 90.8329 718.067 86.0999C721.801 81.367 726.367 77.667 731.767 75C737.234 72.2667 743.367 70.9 750.167 70.9C756.367 70.9 761.667 71.9666 766.067 74.0999C770.534 76.1666 774.501 79.067 777.967 82.8V26.7H795.767ZM907.819 157.7V174H826.519V30.7H845.819V157.7H907.819ZM943.853 72.6999V174H926.053V72.6999H943.853ZM947.653 40.9C947.653 42.6333 947.286 44.2667 946.553 45.8C945.886 47.2667 944.953 48.6 943.753 49.8C942.62 50.9333 941.253 51.8333 939.653 52.5C938.12 53.1667 936.486 53.5 934.753 53.5C933.02 53.5 931.386 53.1667 929.853 52.5C928.386 51.8333 927.086 50.9333 925.953 49.8C924.82 48.6 923.92 47.2667 923.253 45.8C922.586 44.2667 922.253 42.6333 922.253 40.9C922.253 39.1667 922.586 37.5333 923.253 36C923.92 34.4 924.82 33.0333 925.953 31.9C927.086 30.7 928.386 29.7666 929.853 29.0999C931.386 28.4332 933.02 28.0999 934.753 28.0999C936.486 28.0999 938.12 28.4332 939.653 29.0999C941.253 29.7666 942.62 30.7 943.753 31.9C944.953 33.0333 945.886 34.4 946.553 36C947.286 37.5333 947.653 39.1667 947.653 40.9ZM1032.1 89.4C1031.3 90.867 1030.07 91.5999 1028.4 91.5999C1027.4 91.5999 1026.27 91.2329 1025 90.5C1023.73 89.7669 1022.17 88.9669 1020.3 88.0999C1018.5 87.167 1016.33 86.333 1013.8 85.5999C1011.27 84.7999 1008.27 84.4 1004.8 84.4C1001.8 84.4 999.1 84.7999 996.7 85.5999C994.3 86.333 992.233 87.3669 990.5 88.6999C988.833 90.0329 987.533 91.5999 986.6 93.3999C985.733 95.1329 985.3 97.0329 985.3 99.0999C985.3 101.7 986.033 103.867 987.5 105.6C989.033 107.333 991.033 108.833 993.5 110.1C995.967 111.367 998.767 112.5 1001.9 113.5C1005.03 114.433 1008.23 115.467 1011.5 116.6C1014.83 117.667 1018.07 118.867 1021.2 120.2C1024.33 121.533 1027.13 123.2 1029.6 125.2C1032.07 127.2 1034.03 129.667 1035.5 132.6C1037.03 135.467 1037.8 138.933 1037.8 143C1037.8 147.667 1036.97 152 1035.3 156C1033.63 159.933 1031.17 163.367 1027.9 166.3C1024.63 169.167 1020.63 171.433 1015.9 173.1C1011.17 174.767 1005.7 175.6 999.5 175.6C992.433 175.6 986.033 174.467 980.3 172.2C974.567 169.867 969.7 166.9 965.7 163.3L969.9 156.5C970.433 155.633 971.067 154.967 971.8 154.5C972.533 154.033 973.467 153.8 974.6 153.8C975.8 153.8 977.067 154.267 978.4 155.2C979.733 156.133 981.333 157.167 983.2 158.3C985.133 159.433 987.467 160.467 990.2 161.4C992.933 162.333 996.333 162.8 1000.4 162.8C1003.87 162.8 1006.9 162.367 1009.5 161.5C1012.1 160.567 1014.27 159.333 1016 157.8C1017.73 156.267 1019 154.5 1019.8 152.5C1020.67 150.5 1021.1 148.367 1021.1 146.1C1021.1 143.3 1020.33 141 1018.8 139.2C1017.33 137.333 1015.37 135.767 1012.9 134.5C1010.43 133.167 1007.6 132.033 1004.4 131.1C1001.27 130.1 998.033 129.067 994.7 128C991.433 126.933 988.2 125.733 985 124.4C981.867 123 979.067 121.267 976.6 119.2C974.133 117.133 972.133 114.6 970.6 111.6C969.133 108.533 968.4 104.833 968.4 100.5C968.4 96.633 969.2 92.933 970.8 89.4C972.4 85.8 974.733 82.667 977.8 80C980.867 77.2669 984.633 75.0999 989.1 73.5C993.567 71.9 998.667 71.0999 1004.4 71.0999C1011.07 71.0999 1017.03 72.1667 1022.3 74.3C1027.63 76.3667 1032.23 79.233 1036.1 82.9L1032.1 89.4ZM1090.72 175.6C1082.72 175.6 1076.56 173.367 1072.22 168.9C1067.96 164.433 1065.82 158 1065.82 149.6V87.5999H1053.62C1052.56 87.5999 1051.66 87.2999 1050.92 86.6999C1050.19 86.0329 1049.82 85.0329 1049.82 83.6999V76.5999L1066.42 74.5L1070.52 43.1999C1070.72 42.1999 1071.16 41.4 1071.82 40.7999C1072.56 40.1332 1073.49 39.7999 1074.62 39.7999H1083.62V74.6999H1112.92V87.5999H1083.62V148.4C1083.62 152.667 1084.66 155.833 1086.72 157.9C1088.79 159.967 1091.46 161 1094.72 161C1096.59 161 1098.19 160.767 1099.52 160.3C1100.92 159.767 1102.12 159.2 1103.12 158.6C1104.12 158 1104.96 157.467 1105.62 157C1106.36 156.467 1106.99 156.2 1107.52 156.2C1108.46 156.2 1109.29 156.767 1110.02 157.9L1115.22 166.4C1112.16 169.267 1108.46 171.533 1104.12 173.2C1099.79 174.8 1095.32 175.6 1090.72 175.6Z" fill="black"/>
<path d="M377.75 16H284V55H377.75V16Z" fill="#9398FC"/>
<path d="M342.75 16V55" stroke="black" stroke-width="2"/>
<path d="M377.75 16H343.25V55H377.75V16Z" fill="#6858D8"/>
<path d="M318.104 38.488L314.504 29.16C314.397 28.8827 314.285 28.5627 314.168 28.2C314.051 27.8267 313.939 27.432 313.832 27.016C313.608 27.88 313.379 28.6 313.144 29.176L309.544 38.488H318.104ZM324.568 47H322.168C321.891 47 321.667 46.9307 321.496 46.792C321.325 46.6533 321.197 46.4773 321.112 46.264L318.968 40.728H308.68L306.536 46.264C306.472 46.456 306.349 46.6267 306.168 46.776C305.987 46.9253 305.763 47 305.496 47H303.096L312.264 24.072H315.4L324.568 47Z" fill="black"/>
<path d="M950.75 16H857V55H950.75V16Z" fill="#9398FC"/>
<path d="M915.75 16V55" stroke="black" stroke-width="2"/>
<path d="M950.75 16H916.25V55H950.75V16Z" fill="#6858D8"/>
<path d="M888.976 44.536C889.861 44.536 890.624 44.4347 891.264 44.232C891.904 44.0293 892.427 43.7467 892.832 43.384C893.248 43.0107 893.552 42.5733 893.744 42.072C893.936 41.56 894.032 41 894.032 40.392C894.032 39.208 893.611 38.2747 892.768 37.592C891.925 36.8987 890.661 36.552 888.976 36.552H884.016V44.536H888.976ZM884.016 26.52V34.344H888.112C888.987 34.344 889.744 34.248 890.384 34.056C891.035 33.864 891.568 33.5973 891.984 33.256C892.411 32.9147 892.725 32.504 892.928 32.024C893.131 31.5333 893.232 31 893.232 30.424C893.232 29.0693 892.827 28.0827 892.016 27.464C891.205 26.8347 889.947 26.52 888.24 26.52H884.016ZM888.24 24.072C889.648 24.072 890.859 24.2107 891.872 24.488C892.896 24.7653 893.733 25.16 894.384 25.672C895.045 26.184 895.531 26.8133 895.84 27.56C896.149 28.296 896.304 29.128 896.304 30.056C896.304 30.6213 896.213 31.1653 896.032 31.688C895.861 32.2 895.6 32.68 895.248 33.128C894.896 33.576 894.448 33.9813 893.904 34.344C893.371 34.696 892.741 34.984 892.016 35.208C893.701 35.528 894.965 36.1307 895.808 37.016C896.661 37.8907 897.088 39.0427 897.088 40.472C897.088 41.4427 896.907 42.328 896.544 43.128C896.192 43.928 895.669 44.616 894.976 45.192C894.293 45.768 893.451 46.216 892.448 46.536C891.445 46.8453 890.304 47 889.024 47H880.928V24.072H888.24Z" fill="black"/>
<path d="M209.932 16H0V90.1633H209.932V16Z" fill="#9398FC"/>
<path d="M130.933 16V90.1633" stroke="black" stroke-width="2"/>
<path d="M209.932 16H132.677V90.1633H209.932V16Z" fill="#6858D8"/>
<path d="M71.222 58.7051L65.4085 43.6661C65.2362 43.219 65.0553 42.7031 64.8659 42.1184C64.6764 41.5165 64.4956 40.8802 64.3233 40.2095C63.9615 41.6024 63.5913 42.7633 63.2122 43.6919L57.3987 58.7051H71.222ZM81.6605 72.4286H77.7848C77.337 72.4286 76.9753 72.3168 76.6996 72.0932C76.4239 71.8696 76.2172 71.5858 76.0795 71.242L72.6172 62.3166H56.0035L52.5412 71.242C52.4379 71.5515 52.2397 71.8267 51.9469 72.0674C51.6542 72.3081 51.2924 72.4286 50.8618 72.4286H46.9861L61.7912 35.463H66.8554L81.6605 72.4286Z" fill="black"/>
<path d="M209.412 24.0613L180.865 52.562L209.412 81.0627L237.959 52.562L209.412 24.0613Z" fill="#6858D8"/>
<path fill-rule="evenodd" clip-rule="evenodd" d="M209.932 99.8368H0V108.418L28.0265 136.399L0 164.38V174H209.932V99.8368Z" fill="#9398FC"/>
<path d="M130.933 99.8368V174" stroke="black" stroke-width="2"/>
<path d="M209.932 99.8368H132.677V174H209.932V99.8368Z" fill="#6858D8"/>
<path d="M66.1707 153.905C67.6003 153.905 68.832 153.742 69.8655 153.415C70.899 153.088 71.7431 152.632 72.3976 152.048C73.0694 151.446 73.5603 150.741 73.8704 149.932C74.1804 149.107 74.3354 148.204 74.3354 147.224C74.3354 145.315 73.6551 143.81 72.2943 142.71C70.9334 141.592 68.8922 141.033 66.1707 141.033H58.161V153.905H66.1707ZM58.161 124.859V137.473H64.7754C66.188 137.473 67.4109 137.318 68.4444 137.009C69.4952 136.699 70.3564 136.269 71.0282 135.719C71.7173 135.169 72.2253 134.506 72.5526 133.733C72.88 132.941 73.0435 132.082 73.0435 131.153C73.0435 128.969 72.389 127.378 71.0799 126.381C69.7707 125.366 67.7382 124.859 64.9821 124.859H58.161ZM64.9821 120.912C67.2559 120.912 69.211 121.136 70.8473 121.583C72.501 122.03 73.8531 122.666 74.9039 123.492C75.9718 124.317 76.7556 125.332 77.2551 126.535C77.7546 127.722 78.0044 129.063 78.0044 130.56C78.0044 131.471 77.8579 132.348 77.5652 133.191C77.2895 134.016 76.8676 134.79 76.2991 135.512C75.7307 136.235 75.0072 136.888 74.1287 137.473C73.2675 138.04 72.2511 138.505 71.0799 138.866C73.8014 139.382 75.8426 140.354 77.2034 141.781C78.5814 143.191 79.2705 145.048 79.2705 147.353C79.2705 148.918 78.9777 150.345 78.392 151.635C77.8235 152.925 76.9795 154.034 75.8599 154.963C74.7574 155.891 73.3967 156.614 71.7775 157.129C70.1583 157.628 68.3152 157.878 66.2482 157.878H53.1743V120.912H64.9821Z" fill="black"/>
</svg>
