<svg width="1118" height="240" viewBox="0 0 1118 240" fill="none" xmlns="http://www.w3.org/2000/svg">
<path d="M333.6 180.7V197H252.3V53.7H271.6V180.7H333.6ZM369.634 95.6999V197H351.834V95.6999H369.634ZM373.434 63.9C373.434 65.6333 373.068 67.2667 372.334 68.8C371.668 70.2667 370.734 71.6 369.534 72.8C368.401 73.9333 367.034 74.8333 365.434 75.5C363.901 76.1667 362.268 76.5 360.534 76.5C358.801 76.5 357.168 76.1667 355.634 75.5C354.168 74.8333 352.868 73.9333 351.734 72.8C350.601 71.6 349.701 70.2667 349.034 68.8C348.368 67.2667 348.034 65.6333 348.034 63.9C348.034 62.1667 348.368 60.5333 349.034 59C349.701 57.4 350.601 56.0333 351.734 54.9C352.868 53.7 354.168 52.7666 355.634 52.0999C357.168 51.4332 358.801 51.0999 360.534 51.0999C362.268 51.0999 363.901 51.4332 365.434 52.0999C367.034 52.7666 368.401 53.7 369.534 54.9C370.734 56.0333 371.668 57.4 372.334 59C373.068 60.5333 373.434 62.1667 373.434 63.9ZM415.681 110.4C417.881 107.933 420.215 105.7 422.681 103.7C425.148 101.7 427.748 99.9999 430.481 98.5999C433.281 97.1332 436.215 96.0333 439.281 95.3C442.415 94.5 445.781 94.0999 449.381 94.0999C454.915 94.0999 459.781 95.0333 463.981 96.9C468.248 98.7 471.781 101.3 474.581 104.7C477.448 108.033 479.615 112.067 481.081 116.8C482.548 121.533 483.281 126.767 483.281 132.5V197H465.381V132.5C465.381 124.833 463.615 118.9 460.081 114.7C456.615 110.433 451.315 108.3 444.181 108.3C438.915 108.3 433.981 109.567 429.381 112.1C424.848 114.633 420.648 118.067 416.781 122.4V197H398.881V95.6999H409.581C412.115 95.6999 413.681 96.9333 414.281 99.4L415.681 110.4ZM528.305 49.7V136.4H532.905C534.238 136.4 535.338 136.233 536.205 135.9C537.138 135.5 538.105 134.733 539.105 133.6L571.105 99.3C572.038 98.1667 573.005 97.2999 574.005 96.6999C575.071 96.0332 576.471 95.6999 578.205 95.6999H594.305L557.005 135.4C555.205 137.667 553.271 139.433 551.205 140.7C552.405 141.5 553.471 142.433 554.405 143.5C555.405 144.5 556.338 145.667 557.205 147L596.805 197H580.905C579.371 197 578.038 196.767 576.905 196.3C575.838 195.767 574.905 194.833 574.105 193.5L540.805 152C539.805 150.6 538.805 149.7 537.805 149.3C536.871 148.833 535.405 148.6 533.405 148.6H528.305V197H510.405V49.7H528.305ZM674.103 135.3C674.103 131.167 673.503 127.4 672.303 124C671.17 120.533 669.47 117.567 667.203 115.1C665.003 112.567 662.303 110.633 659.103 109.3C655.903 107.9 652.27 107.2 648.203 107.2C639.67 107.2 632.903 109.7 627.903 114.7C622.97 119.633 619.903 126.5 618.703 135.3H674.103ZM688.503 182.8C686.303 185.467 683.67 187.8 680.603 189.8C677.536 191.733 674.236 193.333 670.703 194.6C667.236 195.867 663.636 196.8 659.903 197.4C656.17 198.067 652.47 198.4 648.803 198.4C641.803 198.4 635.336 197.233 629.403 194.9C623.536 192.5 618.436 189.033 614.103 184.5C609.836 179.9 606.503 174.233 604.103 167.5C601.703 160.767 600.503 153.033 600.503 144.3C600.503 137.233 601.57 130.633 603.703 124.5C605.903 118.367 609.036 113.067 613.103 108.6C617.17 104.067 622.136 100.533 628.003 98C633.87 95.4 640.47 94.0999 647.803 94.0999C653.87 94.0999 659.47 95.1332 664.603 97.1999C669.803 99.1999 674.27 102.133 678.003 106C681.803 109.8 684.77 114.533 686.903 120.2C689.036 125.8 690.103 132.2 690.103 139.4C690.103 142.2 689.803 144.067 689.203 145C688.603 145.933 687.47 146.4 685.803 146.4H618.103C618.303 152.8 619.17 158.367 620.703 163.1C622.303 167.833 624.503 171.8 627.303 175C630.103 178.133 633.436 180.5 637.303 182.1C641.17 183.633 645.503 184.4 650.303 184.4C654.77 184.4 658.603 183.9 661.803 182.9C665.07 181.833 667.87 180.7 670.203 179.5C672.536 178.3 674.47 177.2 676.003 176.2C677.603 175.133 678.97 174.6 680.103 174.6C681.57 174.6 682.703 175.167 683.503 176.3L688.503 182.8ZM777.967 119.8C774.634 115.333 771.034 112.233 767.167 110.5C763.301 108.7 758.967 107.8 754.167 107.8C744.767 107.8 737.534 111.167 732.467 117.9C727.401 124.633 724.867 134.233 724.867 146.7C724.867 153.3 725.434 158.967 726.567 163.7C727.701 168.367 729.367 172.233 731.567 175.3C733.767 178.3 736.467 180.5 739.667 181.9C742.867 183.3 746.501 184 750.567 184C756.434 184 761.534 182.667 765.867 180C770.267 177.333 774.301 173.567 777.967 168.7V119.8ZM795.767 49.7V197H785.167C782.634 197 781.034 195.767 780.367 193.3L778.767 181C774.434 186.2 769.501 190.4 763.967 193.6C758.434 196.8 752.034 198.4 744.767 198.4C738.967 198.4 733.701 197.3 728.967 195.1C724.234 192.833 720.201 189.533 716.867 185.2C713.534 180.867 710.967 175.467 709.167 169C707.367 162.533 706.467 155.1 706.467 146.7C706.467 139.233 707.467 132.3 709.467 125.9C711.467 119.433 714.334 113.833 718.067 109.1C721.801 104.367 726.367 100.667 731.767 98C737.234 95.2667 743.367 93.9 750.167 93.9C756.367 93.9 761.667 94.9666 766.067 97.0999C770.534 99.1666 774.501 102.067 777.967 105.8V49.7H795.767ZM907.819 180.7V197H826.519V53.7H845.819V180.7H907.819ZM943.853 95.6999V197H926.053V95.6999H943.853ZM947.653 63.9C947.653 65.6333 947.286 67.2667 946.553 68.8C945.886 70.2667 944.953 71.6 943.753 72.8C942.62 73.9333 941.253 74.8333 939.653 75.5C938.12 76.1667 936.486 76.5 934.753 76.5C933.02 76.5 931.386 76.1667 929.853 75.5C928.386 74.8333 927.086 73.9333 925.953 72.8C924.82 71.6 923.92 70.2667 923.253 68.8C922.586 67.2667 922.253 65.6333 922.253 63.9C922.253 62.1667 922.586 60.5333 923.253 59C923.92 57.4 924.82 56.0333 925.953 54.9C927.086 53.7 928.386 52.7666 929.853 52.0999C931.386 51.4332 933.02 51.0999 934.753 51.0999C936.486 51.0999 938.12 51.4332 939.653 52.0999C941.253 52.7666 942.62 53.7 943.753 54.9C944.953 56.0333 945.886 57.4 946.553 59C947.286 60.5333 947.653 62.1667 947.653 63.9ZM1032.1 112.4C1031.3 113.867 1030.07 114.6 1028.4 114.6C1027.4 114.6 1026.27 114.233 1025 113.5C1023.73 112.767 1022.17 111.967 1020.3 111.1C1018.5 110.167 1016.33 109.333 1013.8 108.6C1011.27 107.8 1008.27 107.4 1004.8 107.4C1001.8 107.4 999.1 107.8 996.7 108.6C994.3 109.333 992.233 110.367 990.5 111.7C988.833 113.033 987.533 114.6 986.6 116.4C985.733 118.133 985.3 120.033 985.3 122.1C985.3 124.7 986.033 126.867 987.5 128.6C989.033 130.333 991.033 131.833 993.5 133.1C995.967 134.367 998.767 135.5 1001.9 136.5C1005.03 137.433 1008.23 138.467 1011.5 139.6C1014.83 140.667 1018.07 141.867 1021.2 143.2C1024.33 144.533 1027.13 146.2 1029.6 148.2C1032.07 150.2 1034.03 152.667 1035.5 155.6C1037.03 158.467 1037.8 161.933 1037.8 166C1037.8 170.667 1036.97 175 1035.3 179C1033.63 182.933 1031.17 186.367 1027.9 189.3C1024.63 192.167 1020.63 194.433 1015.9 196.1C1011.17 197.767 1005.7 198.6 999.5 198.6C992.433 198.6 986.033 197.467 980.3 195.2C974.567 192.867 969.7 189.9 965.7 186.3L969.9 179.5C970.433 178.633 971.067 177.967 971.8 177.5C972.533 177.033 973.467 176.8 974.6 176.8C975.8 176.8 977.067 177.267 978.4 178.2C979.733 179.133 981.333 180.167 983.2 181.3C985.133 182.433 987.467 183.467 990.2 184.4C992.933 185.333 996.333 185.8 1000.4 185.8C1003.87 185.8 1006.9 185.367 1009.5 184.5C1012.1 183.567 1014.27 182.333 1016 180.8C1017.73 179.267 1019 177.5 1019.8 175.5C1020.67 173.5 1021.1 171.367 1021.1 169.1C1021.1 166.3 1020.33 164 1018.8 162.2C1017.33 160.333 1015.37 158.767 1012.9 157.5C1010.43 156.167 1007.6 155.033 1004.4 154.1C1001.27 153.1 998.033 152.067 994.7 151C991.433 149.933 988.2 148.733 985 147.4C981.867 146 979.067 144.267 976.6 142.2C974.133 140.133 972.133 137.6 970.6 134.6C969.133 131.533 968.4 127.833 968.4 123.5C968.4 119.633 969.2 115.933 970.8 112.4C972.4 108.8 974.733 105.667 977.8 103C980.867 100.267 984.633 98.1 989.1 96.5C993.567 94.9 998.667 94.0999 1004.4 94.0999C1011.07 94.0999 1017.03 95.1667 1022.3 97.3C1027.63 99.3667 1032.23 102.233 1036.1 105.9L1032.1 112.4ZM1090.72 198.6C1082.72 198.6 1076.56 196.367 1072.22 191.9C1067.96 187.433 1065.82 181 1065.82 172.6V110.6H1053.62C1052.56 110.6 1051.66 110.3 1050.92 109.7C1050.19 109.033 1049.82 108.033 1049.82 106.7V99.5999L1066.42 97.5L1070.52 66.1999C1070.72 65.1999 1071.16 64.3999 1071.82 63.7999C1072.56 63.1332 1073.49 62.7999 1074.62 62.7999H1083.62V97.6999H1112.92V110.6H1083.62V171.4C1083.62 175.667 1084.66 178.833 1086.72 180.9C1088.79 182.967 1091.46 184 1094.72 184C1096.59 184 1098.19 183.767 1099.52 183.3C1100.92 182.767 1102.12 182.2 1103.12 181.6C1104.12 181 1104.96 180.467 1105.62 180C1106.36 179.467 1106.99 179.2 1107.52 179.2C1108.46 179.2 1109.29 179.767 1110.02 180.9L1115.22 189.4C1112.16 192.267 1108.46 194.533 1104.12 196.2C1099.79 197.8 1095.32 198.6 1090.72 198.6Z" fill="white"/>
<path d="M377.75 39H284V78H377.75V39Z" fill="#9398FC"/>
<path d="M342.75 39V78" stroke="black" stroke-width="2"/>
<path d="M377.75 39H343.25V78H377.75V39Z" fill="#6858D8"/>
<path d="M318.104 61.488L314.504 52.16C314.397 51.8827 314.285 51.5627 314.168 51.2C314.051 50.8267 313.939 50.432 313.832 50.016C313.608 50.88 313.379 51.6 313.144 52.176L309.544 61.488H318.104ZM324.568 70H322.168C321.891 70 321.667 69.9307 321.496 69.792C321.325 69.6533 321.197 69.4773 321.112 69.264L318.968 63.728H308.68L306.536 69.264C306.472 69.456 306.349 69.6267 306.168 69.776C305.987 69.9253 305.763 70 305.496 70H303.096L312.264 47.072H315.4L324.568 70Z" fill="black"/>
<path d="M950.75 39H857V78H950.75V39Z" fill="#9398FC"/>
<path d="M915.75 39V78" stroke="black" stroke-width="2"/>
<path d="M950.75 39H916.25V78H950.75V39Z" fill="#6858D8"/>
<path d="M888.976 67.536C889.861 67.536 890.624 67.4347 891.264 67.232C891.904 67.0293 892.427 66.7467 892.832 66.384C893.248 66.0107 893.552 65.5733 893.744 65.072C893.936 64.56 894.032 64 894.032 63.392C894.032 62.208 893.611 61.2747 892.768 60.592C891.925 59.8987 890.661 59.552 888.976 59.552H884.016V67.536H888.976ZM884.016 49.52V57.344H888.112C888.987 57.344 889.744 57.248 890.384 57.056C891.035 56.864 891.568 56.5973 891.984 56.256C892.411 55.9147 892.725 55.504 892.928 55.024C893.131 54.5333 893.232 54 893.232 53.424C893.232 52.0693 892.827 51.0827 892.016 50.464C891.205 49.8347 889.947 49.52 888.24 49.52H884.016ZM888.24 47.072C889.648 47.072 890.859 47.2107 891.872 47.488C892.896 47.7653 893.733 48.16 894.384 48.672C895.045 49.184 895.531 49.8133 895.84 50.56C896.149 51.296 896.304 52.128 896.304 53.056C896.304 53.6213 896.213 54.1653 896.032 54.688C895.861 55.2 895.6 55.68 895.248 56.128C894.896 56.576 894.448 56.9813 893.904 57.344C893.371 57.696 892.741 57.984 892.016 58.208C893.701 58.528 894.965 59.1307 895.808 60.016C896.661 60.8907 897.088 62.0427 897.088 63.472C897.088 64.4427 896.907 65.328 896.544 66.128C896.192 66.928 895.669 67.616 894.976 68.192C894.293 68.768 893.451 69.216 892.448 69.536C891.445 69.8453 890.304 70 889.024 70H880.928V47.072H888.24Z" fill="black"/>
<path d="M209.932 39H0V113.163H209.932V39Z" fill="#9398FC"/>
<path d="M130.933 39V113.163" stroke="black" stroke-width="2"/>
<path d="M209.932 39H132.677V113.163H209.932V39Z" fill="#6858D8"/>
<path d="M71.222 81.7053L65.4085 66.6662C65.2362 66.2192 65.0553 65.7032 64.8659 65.1185C64.6764 64.5166 64.4956 63.8803 64.3233 63.2096C63.9615 64.6026 63.5913 65.7634 63.2122 66.692L57.3987 81.7053H71.222ZM81.6605 95.4287H77.7848C77.337 95.4287 76.9753 95.317 76.6996 95.0933C76.4239 94.8697 76.2172 94.586 76.0795 94.2421L72.6172 85.3167H56.0035L52.5412 94.2421C52.4379 94.5516 52.2397 94.8268 51.9469 95.0675C51.6542 95.3083 51.2924 95.4287 50.8618 95.4287H46.9861L61.7912 58.4631H66.8554L81.6605 95.4287Z" fill="black"/>
<path d="M209.412 47.0613L180.865 75.562L209.412 104.063L237.959 75.562L209.412 47.0613Z" fill="#6858D8"/>
<path fill-rule="evenodd" clip-rule="evenodd" d="M209.932 122.837H0V131.418L28.0265 159.399L0 187.38V197H209.932V122.837Z" fill="#9398FC"/>
<path d="M130.933 122.837V197" stroke="black" stroke-width="2"/>
<path d="M209.932 122.837H132.677V197H209.932V122.837Z" fill="#6858D8"/>
<path d="M66.1707 176.905C67.6003 176.905 68.832 176.742 69.8655 176.415C70.899 176.088 71.7431 175.633 72.3976 175.048C73.0694 174.446 73.5603 173.741 73.8704 172.933C74.1804 172.107 74.3354 171.204 74.3354 170.224C74.3354 168.315 73.6551 166.81 72.2943 165.71C70.9334 164.592 68.8922 164.033 66.1707 164.033H58.161V176.905H66.1707ZM58.161 147.859V160.473H64.7754C66.188 160.473 67.4109 160.318 68.4444 160.009C69.4952 159.699 70.3564 159.269 71.0282 158.719C71.7173 158.169 72.2253 157.507 72.5526 156.733C72.88 155.942 73.0435 155.082 73.0435 154.153C73.0435 151.969 72.389 150.378 71.0799 149.381C69.7707 148.366 67.7382 147.859 64.9821 147.859H58.161ZM64.9821 143.912C67.2559 143.912 69.211 144.136 70.8473 144.583C72.501 145.03 73.8531 145.666 74.9039 146.492C75.9718 147.317 76.7556 148.332 77.2551 149.536C77.7546 150.722 78.0044 152.064 78.0044 153.56C78.0044 154.471 77.8579 155.348 77.5652 156.191C77.2895 157.016 76.8676 157.79 76.2991 158.513C75.7307 159.235 75.0072 159.888 74.1287 160.473C73.2675 161.041 72.2511 161.505 71.0799 161.866C73.8014 162.382 75.8426 163.354 77.2034 164.781C78.5814 166.191 79.2705 168.049 79.2705 170.353C79.2705 171.918 78.9777 173.345 78.392 174.635C77.8235 175.925 76.9795 177.034 75.8599 177.963C74.7574 178.891 73.3967 179.614 71.7775 180.13C70.1583 180.628 68.3152 180.878 66.2482 180.878H53.1743V143.912H64.9821Z" fill="black"/>
</svg>
