<svg width="75" height="75" viewBox="0 0 75 75" fill="none" xmlns="http://www.w3.org/2000/svg">
<g clip-path="url(#clip0_11_265)">
<path d="M37.5 2C57.1062 2 73 17.8939 73 37.5C73 57.1062 57.1062 73 37.5 73C17.8939 73 2 57.1062 2 37.5C2 17.8939 17.8939 2 37.5 2Z" fill="white" stroke="#EBEBEB" stroke-width="4"/>
<path fill-rule="evenodd" clip-rule="evenodd" d="M55.8513 37.9261C55.8513 36.5967 55.732 35.3182 55.5105 34.091H37.8513V41.3437H47.9423C47.5076 43.6875 46.1866 45.6733 44.2008 47.003V51.7076H50.2605C53.8059 48.4432 55.8513 43.6364 55.8513 37.9261Z" fill="#4285F4"/>
<path fill-rule="evenodd" clip-rule="evenodd" d="M37.8506 56.25C42.9131 56.25 47.1574 54.5709 50.2598 51.7073L44.2 47.0027C42.521 48.1277 40.3734 48.7924 37.8506 48.7924C32.9671 48.7924 28.8335 45.4943 27.359 41.0625H21.0948V45.9204C24.1802 52.0481 30.521 56.25 37.8506 56.25Z" fill="#34A853"/>
<path fill-rule="evenodd" clip-rule="evenodd" d="M27.3598 41.0625C26.9848 39.9375 26.7717 38.7356 26.7717 37.5C26.7717 36.2641 26.9848 35.0625 27.3598 33.9375V29.0794H21.0956C19.8257 31.6106 19.1013 34.4742 19.1013 37.5C19.1013 40.5255 19.8257 43.3891 21.0956 45.9204L27.3598 41.0625Z" fill="#FBBC05"/>
<path fill-rule="evenodd" clip-rule="evenodd" d="M37.8506 26.2073C40.6033 26.2073 43.075 27.1535 45.0182 29.0114L50.396 23.6334C47.1489 20.608 42.9046 18.75 37.8506 18.75C30.521 18.75 24.1802 22.9517 21.0948 29.0796L27.359 33.9375C28.8335 29.5057 32.9671 26.2073 37.8506 26.2073Z" fill="#EA4335"/>
</g>
<defs>
<clipPath id="clip0_11_265">
<rect width="75" height="75" fill="white"/>
</clipPath>
</defs>
</svg>
